<?xml version="1.0" standalone="no"?>
<!DOCTYPE svg PUBLIC "-//W3C//DTD SVG 20010904//EN"
 "http://www.w3.org/TR/2001/REC-SVG-20010904/DTD/svg10.dtd">
<svg version="1.0" xmlns="http://www.w3.org/2000/svg"
 width="630.000000pt" height="630.000000pt" viewBox="0 0 630.000000 630.000000"
 preserveAspectRatio="xMidYMid meet">
<metadata>
Created by potrace 1.14, written by Peter Selinger 2001-2017
</metadata>
<g transform="translate(0.000000,630.000000) scale(0.100000,-0.100000)"
fill="#000000" stroke="none">
<path d="M2949 6296 c-2 -2 -42 -6 -87 -10 -589 -46 -1199 -292 -1687 -683
-111 -89 -342 -313 -425 -411 -307 -367 -527 -789 -645 -1237 -32 -121 -61
-264 -71 -345 -3 -19 -7 -46 -9 -59 -27 -150 -27 -675 0 -806 3 -11 7 -37 10
-58 25 -176 69 -359 129 -541 261 -779 831 -1436 1566 -1807 327 -164 625
-256 1020 -314 188 -27 635 -27 801 0 106 17 217 36 234 40 11 2 49 10 85 18
369 81 807 281 1135 519 151 110 442 381 550 512 349 425 579 898 679 1396 23
114 28 145 41 250 16 119 20 198 20 385 0 187 -8 353 -20 410 -5 23 -15 89
-20 125 -2 14 -8 45 -13 70 -6 25 -14 61 -17 80 -18 105 -89 337 -151 492
-342 854 -1052 1523 -1924 1815 -74 25 -142 46 -150 48 -8 2 -51 12 -95 23
-44 11 -98 23 -120 28 -22 4 -44 8 -50 10 -25 6 -115 20 -260 39 -45 6 -520
16 -526 11z"/>
</g>
</svg>
